<?xml version="1.0" standalone="no"?>
<!DOCTYPE svg PUBLIC "-//W3C//DTD SVG 1.1//EN" "http://www.w3.org/Graphics/SVG/1.1/DTD/svg11.dtd" >
<!--
2013-9-30: Created.
-->
<svg>
<metadata>
Created by iconfont
</metadata>
<defs>

<font id="iconfont" horiz-adv-x="1024" >
  <font-face
    font-family="iconfont"
    font-weight="500"
    font-stretch="normal"
    units-per-em="1024"
    ascent="896"
    descent="-128"
  />
    <missing-glyph />
    
    <glyph glyph-name="kefu" unicode="&#58943;" d="M510.097674 706.505181c-134.373407 0-243.281839-106.623389-243.281839-238.182704 0-131.541919 108.908432-238.179634 243.281839-238.179634 134.3775 0 243.285932 106.636692 243.285932 238.179634C753.383606 599.882815 644.475174 706.505181 510.097674 706.505181L510.097674 706.505181zM510.097674 706.505181M229.17761 376.897232 229.17761 596.790384c-3.079128 0-6.132674-0.125867-9.148357-0.366344C269.882684 704.650951 380.918569 780.025639 510.135536 780.025639c129.21185 0 240.253876-75.374688 290.103214-183.600575-3.016707 0.240477-6.066159 0.366344-9.148357 0.366344l0-219.894176c62.052265 0 112.390743 49.231261 112.390743 109.941971 0 41.235147-23.219841 77.163427-57.552787 95.982028-48.314379 136.089491-180.214455 233.837746-335.792812 233.837746-155.577335 0-287.469224-97.739045-335.788719-233.824443-34.344203-18.815531-57.555857-54.750975-57.555857-95.990215C116.79096 426.128493 167.090553 376.897232 229.17761 376.897232L229.17761 376.897232zM229.17761 376.897232M752.869906 250.839211c-63.570851-58.08593-148.919704-93.65196-242.772232-93.65196-93.676519 0-178.881087 35.435047-242.415099 93.327572C153.974837 193.232189 79.32465 91.277122 79.32465-47.226349l864.503403 0C943.827029 91.534995 867.780029 193.614905 752.869906 250.839211L752.869906 250.839211zM752.869906 250.839211"  horiz-adv-x="1024" />

    
    <glyph glyph-name="guanbi" unicode="&#58908;" d="M511.829108 839.190133c-247.255337 0-447.696462-200.431915-447.696462-447.679066s200.441125-447.679066 447.696462-447.679066c247.261477 0 447.696462 200.431915 447.696462 447.679066S759.090585 839.190133 511.829108 839.190133zM546.552957 229.662913l-82.368986 0 0 69.394487 82.368986 0L546.552957 229.662913zM620.682281 427.822065c-6.746658-11.340279-20.529569-25.193799-41.348734-41.559535-14.497179-11.483542-23.645536-20.706601-27.456329-27.669176-3.798513-6.963599-5.703909-16.042371-5.703909-27.240411l-81.821517 0 0 8.182356c0 13.926174 1.576915 25.230638 4.731768 33.914414 3.160993 8.685823 7.860015 16.617469 14.105253 23.794939 6.244214 7.17747 20.278859 19.810185 42.101887 37.898145 11.626805 9.474792 17.439184 18.160615 17.439184 26.056446s-2.337231 14.032598-6.997368 18.410302c-4.6673 4.378727-11.735275 6.567579-21.212114 6.567579-10.191106 0-18.624173-3.372817-25.300222-10.119475-6.67605-6.748704-10.9504-18.519796-12.81691-35.31532l-83.546811 10.335393c2.871397 30.721699 14.033621 55.44887 33.488719 74.182536 19.447934 18.73469 49.273217 28.102035 89.469708 28.102035 31.292704 0 56.561204-6.532787 75.79629-19.596314 26.123984-17.657148 39.191604-41.200354 39.191604-70.628594C630.801756 450.934458 627.428939 439.163367 620.682281 427.822065z"  horiz-adv-x="1024" />

    
    <glyph glyph-name="zhitongcheguanjianci" unicode="&#59054;" d="M512.000512 754.566804c-174.695764 0-317.630151-19.484773-317.630151-156.008146l0-370.569874c0-74.111928 63.523779-136.523373 138.960889-136.523373l-59.553351-58.553581 0-19.478633 476.439086 0 0 19.478633-59.553351 58.496276c75.438133 0 138.962935 62.416562 138.962935 136.53156l0.001023 0L829.627592 598.504422C829.628616 735.0851 686.694229 754.566804 512.000512 754.566804zM333.332273 169.442366c-31.761378 0-59.553351 27.312042-59.553351 58.497299 0 31.18321 27.79095 58.496276 59.553351 58.496276 31.763424 0 59.558467-27.314089 59.558467-58.496276C392.889717 196.757478 365.095697 169.442366 333.332273 169.442366zM472.297254 403.48068 273.778922 403.48068 273.778922 598.558657 472.297254 598.558657 472.297254 403.48068zM690.664657 169.442366c-31.762401 0-59.555397 27.312042-59.555397 58.497299 0 31.18321 27.792996 58.496276 59.555397 58.496276s59.553351-27.314089 59.553351-58.496276C750.218008 196.757478 722.429105 169.442366 690.664657 169.442366zM750.218008 403.48068 551.702746 403.48068 551.702746 598.558657l198.515263 0L750.218008 403.48068z"  horiz-adv-x="1024" />

    
    <glyph glyph-name="diannao1" unicode="&#58880;" d="M1064.925 896h-983.012c-45.239 0-81.912-36.673-81.912-81.912v-655.299c0-45.239 36.673-81.912 81.912-81.912 0 0 0 0 0 0h409.594v-122.884h-204.797c-22.612-0.018-40.938-18.344-40.956-40.954l-0-40.958h655.347v40.956c-0.018 22.618-18.353 40.947-40.971 40.956l-204.782 0v122.884h409.578c0.005-0 0.010-0 0.016-0 45.239 0 81.912 36.673 81.912 81.912 0 0 0 0 0 0v655.299c0 0 0 0 0 0 0 45.239-36.673 81.912-81.912 81.912-0.006 0-0.011-0-0.017-0zM532.462 158.773c-0.020 0.476-0.031 1.034-0.031 1.595 0 22.628 18.344 40.972 40.972 40.972 22.628 0 40.972-18.344 40.972-40.972 0-0.572-0.012-1.142-0.035-1.708-0.895-21.836-18.881-39.264-40.937-39.264-22.067 0-40.060 17.446-40.938 39.297M81.912 814.088h983.012v-573.387h-983.012v573.387z"  horiz-adv-x="1147" />

    
    <glyph glyph-name="qiyefengcai" unicode="&#59946;" d="M61.44 632.2176v-497.83808c0-46.49984 9.3696-55.27552 55.27552-55.27552H743.7312c45.53728 0 55.27552 8.52992 55.27552 55.27552V632.2176c0 45.42464-8.6528 55.27552-55.27552 55.27552H116.71552C71.04512 687.616 61.44 679.68 61.44 632.2176z m650.8032-424.05888H148.6848c61.6448 89.76384 171.1104 239.49312 198.99392 239.49312 26.92096 0 118.36416-121.00608 159.6928-163.54304 0 0 53.11488 71.0144 80.9984 71.0144 28.35456 0 122.92096-146.23744 123.88352-146.96448z m-165.5808 313.50784a67.95264 67.95264 0 0 0 68.01408 68.01408 67.95264 67.95264 0 0 0 68.00384-68.01408 67.95264 67.95264 0 0 0-68.00384-68.01408 67.95264 67.95264 0 0 0-68.01408 68.01408zM407.3984 720.896l-107.91936 20.4288c-35.80928 6.85056-49.98144 4.33152-58.75712-20.4288h166.66624z m508.03712-96.36864l-84.46976 15.9744v-506.83904c0-23.1936-1.56672-49.5104-19.94752-67.5328-17.89952-17.54112-43.73504-18.98496-66.57024-18.98496h-50.95424l108.26752-20.55168c44.70784-8.52992 55.87968-2.048 64.65536 43.9808l92.8768 489.18528c8.66304 44.6976 2.048 56.1152-43.85792 64.768z"  horiz-adv-x="1024" />

    
    <glyph glyph-name="hudong" unicode="&#59110;" d="M417.6 47.2c60.8-53.6 143.2-86.4 234.4-86.4 28 0 55.2 3.2 81.6 8.8 24 5.6 79.2-56.8 101.6-47.2 27.2 12 19.2 97.6 41.6 116 70.4 57.6 115.2 141.6 115.2 235.2 0 80-32.8 153.6-86.4 208.8 0-5.6 0.8-12 0.8-18.4 0-116-51.2-221.6-132.8-296.8-81.6-75.2-194.4-122.4-318.4-122.4-13.6 0.8-25.6 0.8-37.6 2.4zM453.6 856c233.6 0 424-175.2 424-391.2s-189.6-391.2-424-391.2c-35.2 0-68.8 4-101.6 11.2-30.4 7.2-99.2-71.2-126.4-58.4-33.6 15.2-24.8 122.4-52 144.8-88 72-143.2 176.8-143.2 293.6C29.6 680.8 220 856 453.6 856zM276 498.4h375.2c13.6 0 24 10.4 24 24s-10.4 24-24 24H276c-13.6 0-24-10.4-24-24 0-12.8 11.2-24 24-24z m0-168.8h375.2c13.6 0 24 10.4 24 24s-10.4 24-24 24H276c-13.6 0-24-10.4-24-24s11.2-24 24-24z"  horiz-adv-x="1024" />

    
    <glyph glyph-name="tuiguang" unicode="&#58892;" d="M1126.4 141.963636v-195.490909c0-18.618182-9.309091-27.927273-18.618182-46.545454s-27.927273-18.618182-46.545454-18.618182H865.745455c-18.618182 0-27.927273 9.309091-46.545455 18.618182s-18.618182 27.927273-18.618182 46.545454V141.963636c0 18.618182 9.309091 27.927273 18.618182 46.545455s27.927273 18.618182 46.545455 18.618182h55.854545V328.145455H605.090909v-121.018182H660.945455c18.618182 0 27.927273-9.309091 46.545454-18.618182s18.618182-27.927273 18.618182-46.545455v-195.490909c0-18.618182-9.309091-27.927273-18.618182-46.545454s-27.927273-18.618182-46.545454-18.618182H465.454545c-18.618182 0-27.927273 9.309091-46.545454 18.618182s-18.618182 27.927273-18.618182 46.545454V141.963636c0 18.618182 9.309091 27.927273 18.618182 46.545455s27.927273 18.618182 46.545454 18.618182h55.854546V328.145455H204.8v-121.018182h55.854545c18.618182 0 27.927273-9.309091 46.545455-18.618182s18.618182-27.927273 18.618182-46.545455v-195.490909c0-18.618182-9.309091-27.927273-18.618182-46.545454s-27.927273-18.618182-46.545455-18.618182H65.163636c-18.618182 0-27.927273 9.309091-46.545454 18.618182s-18.618182 27.927273-18.618182 46.545454V141.963636c0 18.618182 9.309091 27.927273 18.618182 46.545455s27.927273 18.618182 46.545454 18.618182h55.854546V328.145455c0 18.618182 9.309091 37.236364 27.927273 55.854545 18.618182 18.618182 37.236364 27.927273 55.854545 27.927273h316.509091V523.636364h-55.854546c-18.618182 0-27.927273 9.309091-46.545454 18.618181s-18.618182 27.927273-18.618182 46.545455V784.290909c0 18.618182 9.309091 27.927273 18.618182 46.545455s27.927273 18.618182 46.545454 18.618181H660.945455c18.618182 0 27.927273-9.309091 46.545454-18.618181s18.618182-27.927273 18.618182-46.545455v-195.490909c0-18.618182-9.309091-27.927273-18.618182-46.545455S679.563636 523.636364 660.945455 523.636364h-55.854546v-121.018182h316.509091c18.618182 0 37.236364-9.309091 55.854545-27.927273 18.618182-18.618182 27.927273-37.236364 27.927273-55.854545v-121.018182h55.854546c18.618182 0 27.927273-9.309091 46.545454-18.618182s18.618182-18.618182 18.618182-37.236364z"  horiz-adv-x="1126" />

    
    <glyph glyph-name="xinwen" unicode="&#59630;" d="M891.8 645.5h-27v-546.3h-48V645.5h-0.1v99.8c0 16.4-4.9 33.2-14.7 46.4-17.6 23.7-44.1 37.4-73.6 38.4-7.3 0.2-14.5 0-21.8 0H172.8c-9 0-18.3 0.5-27.2-0.7-14.4-1.8-28.2-5.7-40.5-13.5-11.9-7.3-22-17.2-29.3-29.2-7.6-12.5-11.3-27.1-11.4-41.7v-725.1c0.2-23.1 10.6-46.1 28.3-61 17.8-14.9 39.4-23.1 62.7-23.3h736.4c37.8 0 68.6 28.8 68.6 64.1V581.5c0 35.3-30.8 64-68.6 64z m-687.4 2.1c4.4 4.3 10.8 7 17 7h0.4c9.8 0.1 19.7 0 29.5 0h212.8c13.5 0 23.4-11 24-24.1 0.3-6-2.8-12.8-7-17-4.4-4.3-10.8-7-17-7h-0.4c-9.8-0.1-19.7 0-29.5 0H221.4c-13.5 0-23.4 11-24 24.1-0.3 5.9 2.8 12.7 7 17zM675 111.1c-4.4-4.3-10.8-7-17-7h-0.7c-5.7-0.1-11.3 0-17 0H221.4c-13.5 0-23.4 11-24 24.1-0.3 6 2.8 12.8 7 17 4.4 4.3 10.8 7 17 7h0.7c5.7 0.1 11.3 0 17 0H658c13.5 0 23.4-11 24-24.1 0.3-6-2.8-12.8-7-17z m0 127.9c-4.4-4.3-10.8-7-17-7h-0.7c-5.7-0.1-11.3 0-17 0H221.4c-13.5 0-23.4 11-24 24.1-0.3 6 2.8 12.8 7 17 4.4 4.3 10.8 7 17 7h0.7c5.7 0.1 11.3 0 17 0H658c13.5 0 23.4-11 24-24.1 0.3-6-2.8-12.8-7-17z m0 142c-4.4-4.3-10.8-7-17-7h-0.7c-5.7-0.1-11.3 0-17 0H221.4c-13.5 0-23.4 11-24 24.1-0.3 6 2.8 12.8 7 17 4.4 4.3 10.8 7 17 7h0.7c5.7 0.1 11.3 0 17 0H658c13.5 0 23.4-11 24-24.1 0.3-6-2.8-12.8-7-17z"  horiz-adv-x="1024" />

    
    <glyph glyph-name="jinglirun" unicode="&#58981;" d="M735.744 194.56m-311.296 0a311.296 311.296 0 1 1 622.592 0 311.296 311.296 0 1 1-622.592 0ZM804.864 236.544c5.12-1.024 10.24-1.536 14.336-2.048h47.104c4.608 0.512 8.704-1.024 11.776-5.12 3.072-3.584 4.096-11.264 4.096-11.264v-33.792s-3.584-10.24-13.312-11.264h-81.92c-3.584 1.536-6.656 0.512-10.752-1.536-3.072-1.536-4.608-4.608-4.608-8.704 0-4.096 0-8.192 0.512-12.288 0.512-4.096 0.512-8.192 0.512-10.752 0-5.632 4.608-7.68 13.824-8.704h80.896c9.216 2.56 18.944-10.24 18.944-10.24v-31.232s-12.288-13.824-25.088-10.24h-17.92c-7.68-3.584-14.848-4.096-23.04-4.608-8.192-0.512-14.848-1.024-21.504-0.512h-12.8c-8.192-0.512-12.8-14.336-12.8-14.336v-55.808c0-4.608-3.584-6.656-10.752-6.656h-41.984c-11.264 0-16.896 4.608-16.896 14.336 0 3.584 0.512 11.264 0.512 23.04 0.512 11.776 0 19.456-0.512 24.064 0 4.096-0.512 7.68-1.536 8.704-0.512 1.024-3.072 2.048-8.192 2.048h-87.552c-12.288 0-18.432 6.144-18.432 18.944 0 2.56-0.512 6.144-1.536 11.264-1.024 4.096-1.024 8.704 0 13.824 1.024 4.608 2.56 9.216 4.096 13.312 2.048 3.584 5.632 5.12 11.264 4.096h96.256c2.048 0 2.56 2.048 2.56 7.68v26.624c0 4.608-5.632 6.656-16.896 6.656h-81.92c-3.584 0-6.656 0-10.24 0.512-3.072 0.512-4.096 3.072-4.096 8.192v18.432s-1.536 13.312-2.048 16.896c-2.048 5.632-0.512 10.752 4.096 13.824 4.608 4.096 10.752 5.632 17.92 5.632 7.68-1.024 15.36-1.024 24.576-0.512 8.704 0.512 15.36 0.512 19.968 3.584h16.384c5.632-3.072 7.68-1.024 5.632 2.048-1.536 2.048-7.68 9.216-16.384 20.992-9.728 12.8-18.944 25.088-29.184 38.4-12.288 15.872-26.112 33.28-41.984 52.736-6.144 10.752-5.12 18.944 4.096 25.6 4.608 3.072 9.728 6.144 14.336 10.752 5.12 4.096 11.264 8.192 17.408 11.776 9.216 5.632 17.92 0.512 26.624-15.36 3.072-4.096 8.192-10.752 15.872-20.48 8.192-10.24 15.872-19.968 24.576-31.744 8.192-11.776 15.872-21.504 24.064-30.208 7.68-9.216 11.776-14.848 12.8-16.384 1.536-3.584 5.12-6.144 10.24-6.656 5.12-1.024 9.216 0.512 10.752 4.096 1.024 2.048 4.608 8.192 11.776 17.92 6.656 9.728 14.336 20.48 23.04 32.768s15.872 24.064 23.552 34.816c7.68 10.752 12.288 17.408 13.824 19.968 4.608 6.656 8.704 10.752 11.776 12.8 3.072 2.048 8.704 1.536 15.872-1.536 4.608-2.048 9.728-4.608 14.848-8.704 5.632-3.584 9.728-6.656 11.264-8.704 10.24-10.752 13.312-18.944 8.704-27.136-1.536-3.072-6.656-10.24-14.848-20.992-8.704-11.264-17.408-23.552-27.136-35.84-10.24-12.8-18.432-24.576-26.624-35.84s-12.288-17.92-13.312-19.456c-0.512-3.584 0.512-6.656 5.12-7.68zM26.624 706.048a382.976 189.952 0 1 1 765.952 0 382.976 189.952 0 1 1-765.952 0ZM530.944 467.456C492.544 460.8 452.096 457.728 409.6 457.728c-182.272 0-334.848 62.976-373.76 147.968-6.144-13.824-9.728-27.648-9.728-42.496 0-104.96 171.52-189.952 382.976-189.952 10.24 0 19.968 0.512 30.208 1.024 24.576 36.352 55.296 67.584 91.648 93.184zM782.848 519.168c6.656 13.824 10.752 28.672 10.752 43.52 0 14.336-3.584 28.672-9.728 42.496-13.824-30.208-42.496-57.344-80.896-79.872 5.12 0.512 10.752 1.024 16.384 1.024 20.992-0.512 42.496-2.56 63.488-7.168zM409.6 331.776c-182.272 0-334.848 62.976-373.76 147.968-6.144-13.824-9.728-27.648-9.728-42.496 0-101.888 161.792-185.344 365.568-189.952 4.608 29.696 13.312 57.856 25.6 84.48H409.6zM388.096 207.36c-172.544 4.608-314.88 66.56-351.744 147.456-6.144-13.824-9.728-27.648-9.728-42.496 0-102.4 163.84-186.368 368.64-189.952-5.12 23.552-8.192 47.104-8.192 71.68 0.512 4.608 1.024 9.216 1.024 13.312zM36.352 229.376c-6.144-13.824-9.728-27.648-9.728-42.496 0-104.96 171.52-189.952 382.976-189.952 14.336 0 28.16 0.512 41.984 1.024-18.432 25.6-33.28 53.248-44.032 83.456-181.248 1.024-332.8 64.512-371.2 147.968zM484.864-39.424c-24.576-2.56-49.152-3.584-75.264-3.584-182.272 0-334.848 62.976-373.76 147.968-6.144-13.824-9.728-27.648-9.728-42.496 0-104.96 171.52-189.952 382.976-189.952 62.464 0 120.832 7.68 173.056 20.48-35.84 16.896-69.12 39.424-97.28 67.584z"  horiz-adv-x="1062" />

    
    <glyph glyph-name="anli" unicode="&#58881;" d="M959.247059 585.788235L524.047059 834.258824c-6.023529 4.517647-15.058824 4.517647-21.082353 0L64.752941 585.788235c-9.035294-6.023529-9.035294-19.576471 0-25.6l436.705883-249.97647c6.023529-4.517647 15.058824-4.517647 21.082352 0l436.705883 249.97647c9.035294 6.023529 9.035294 19.576471 0 25.6zM42.164706 445.741176v-64.752941c0-6.023529 3.011765-10.541176 7.529412-13.552941l439.717647-251.482353c13.552941-7.529412 28.611765-7.529412 42.164706 0l439.717647 251.482353c4.517647 3.011765 7.529412 7.529412 7.529411 13.552941v64.752941c0 10.541176-10.541176 16.564706-19.57647 12.047059l-436.705883-251.482353c-6.023529-3.011765-13.552941-3.011765-19.57647 0L63.247059 457.788235c-9.035294 4.517647-21.082353-1.505882-21.082353-12.047059zM42.164706 266.54117599999995v-64.752941c0-6.023529 3.011765-10.541176 7.529412-13.552941l439.717647-251.482353c13.552941-7.529412 28.611765-7.529412 42.164706 0L972.8 188.23529399999995c4.517647 3.011765 7.529412 7.529412 7.529412 13.552941v64.752941c0 10.541176-10.541176 16.564706-19.576471 12.047059L522.541176 27.10588199999995c-6.023529-3.011765-13.552941-3.011765-19.57647 0L63.247059 278.58823500000005c-9.035294 4.517647-21.082353-1.505882-21.082353-12.047059z"  horiz-adv-x="1024" />

    
    <glyph glyph-name="UI_icon_zhuantitu" unicode="&#58993;" d="M128 768m64 0l224 0q64 0 64-64l0-224q0-64-64-64l-224 0q-64 0-64 64l0 224q0 64 64 64ZM128 352m64 0l224 0q64 0 64-64l0-224q0-64-64-64l-224 0q-64 0-64 64l0 224q0 64 64 64ZM864 672H576a32 32 0 0 0 0 64h288a32 32 0 0 0 0-64zM864 448H576a32 32 0 0 0 0 64h288a32 32 0 0 0 0-64zM864 256H576a32 32 0 0 0 0 64h288a32 32 0 0 0 0-64zM864 32H576a32 32 0 0 0 0 64h288a32 32 0 0 0 0-64z"  horiz-adv-x="1024" />

    
    <glyph glyph-name="rencaidongtaiyufazhan" unicode="&#58979;" d="M166.473143 340.48l-16.091429 9.216c-36.278857 20.772571-49.152 39.058286-49.152 49.225143 0 42.788571 155.794286 121.563429 410.331429 121.563428h24.576l82.066286 83.382858c5.558857-24.283429 10.386286-50.761143 14.262857-79.36h-88.502857L678.765714 290.669714c-49.225143-7.606857-105.033143-12.214857-166.692571-12.214857-53.248 0-104.301714 3.510857-155.794286 10.898286l22.820572 81.261714-244.882286-62.537143 32.329143 32.402286z m345.088 282.843429a1236.114286 1236.114286 0 0 1-101.668572-4.169143l1.828572 7.314285c28.013714 109.348571 72.630857 168.228571 100.352 168.228572 28.233143 0 73.581714-61.586286 102.4-175.835429l-13.458286 0.950857c-32.036571 2.340571-62.171429 3.510857-89.453714 3.510858z m134.729143-439.588572l-26.038857-6.582857-1.974858-8.557714c-18.797714-84.187429-45.641143-139.410286-69.485714-168.96-14.409143-17.846857-27.721143-26.331429-37.522286-26.331429-29.330286 0-76.214857 65.682286-104.96 187.318857l-3.291428 14.043429-84.992-21.211429 10.532571 37.376c59.538286-9.508571 120.246857-14.409143 180.516572-14.409143 44.324571 0 92.306286 2.340571 137.216 7.314286zM915.017143 542.72l-9.435429 5.046857-75.776-76.946286 18.285715-8.557714c51.2-23.844571 74.24-48.493714 74.24-62.244571 0-4.022857-1.462857-8.411429-4.096-12.946286-13.458286-22.747429-60.123429-51.053714-133.997715-73.142857-29.622857-8.777143-63.561143-16.530286-101.449143-22.601143l55.954286 96.914286 78.774857 136.265143H740.352C716.507429 706.413714 644.754286 896 512 896 415.451429 896 337.92 792.356571 299.227429 611.766857l-1.536-7.387428C130.633143 573.220571 0 504.173714 0 399.286857c0.585143-47.177143 29.257143-90.770286 83.163429-126.244571l9.654857-6.290286 28.525714 28.525714 183.588571-188.269714 2.852572 10.020571C349.037714-38.985143 422.912-128 512-128c102.180571 0 181.833143 113.737143 218.404571 311.881143l2.340572 12.726857c163.766857 31.744 290.742857 100.425143 290.742857 203.702857 0 54.857143-37.522286 104.155429-108.470857 142.409143z"  horiz-adv-x="1024" />

    
    <glyph glyph-name="redian" unicode="&#58896;" d="M273.853437 486.534471C410.341946 554.442548 444.632163 896 444.632163 896a478.718319 478.718319 0 0 0 272.977019-375.175312A255.495732 255.495732 0 0 1 751.899399 694.292843c443.755745-443.755745 67.235719-716.732764-67.235719-818.931057 134.471438 375.175312-102.198293 545.954038-134.471438 580.244255a235.997374 235.997374 0 0 0-102.198293-272.977019c43.03086 21.51543 0 134.471438-34.290217 170.778726a201.707157 201.707157 0 0 0-67.235719-170.778726c-67.235719-67.235719-67.235719-170.778726-34.290217-307.267236-341.557452 201.707157-238.686802 409.465529-201.707156 478.045962a888.183848 888.183848 0 0 1 95.47472 235.325016 490.820749 490.820749 0 0 0 67.908077-102.198293z"  horiz-adv-x="1024" />

    
    <glyph glyph-name="ditu1" unicode="&#59496;" d="M870.4 332.8h-175.616a1767.424 1767.424 0 0 0-144.384-187.904l-38.4-42.496-38.4 42.496A1767.424 1767.424 0 0 0 329.216 332.8H153.6l-153.6-460.8h1024zM768 640A256 256 0 0 1 256 640c0-175.104 256-460.8 256-460.8s256 285.696 256 460.8zM409.6 640a102.4 102.4 0 1 0 102.4-102.4 102.4 102.4 0 0 0-102.4 102.4z"  horiz-adv-x="1024" />

    
    <glyph glyph-name="wenjuan" unicode="&#59103;" d="M301.176471-67.764706H180.705882c-66.258824 0-120.470588 54.211765-120.470588 120.470588V775.529412C60.235294 841.788235 114.447059 896 180.705882 896h602.352942c66.258824 0 120.470588-54.211765 120.470588-120.470588v-271.058824c0-18.070588-12.047059-30.117647-30.117647-30.117647s-30.117647 12.047059-30.117647 30.117647V775.529412c0 36.141176-24.094118 60.235294-60.235294 60.235294H180.705882c-36.141176 0-60.235294-24.094118-60.235294-60.235294v-722.82353c0-36.141176 24.094118-60.235294 60.235294-60.235294h150.588236c18.070588 0 30.117647-12.047059 30.117647-30.117647s-12.047059-30.117647-30.117647-30.117647H301.176471zM271.058824 655.058824h421.647058c18.070588 0 30.117647-12.047059 30.117647-30.117648s-12.047059-30.117647-30.117647-30.117647h-421.647058c-18.070588 0-30.117647 12.047059-30.117648 30.117647s12.047059 30.117647 30.117648 30.117648z m0-180.705883h301.17647c18.070588 0 30.117647-12.047059 30.117647-30.117647s-12.047059-30.117647-30.117647-30.117647h-301.17647c-18.070588 0-30.117647 12.047059-30.117648 30.117647s12.047059 30.117647 30.117648 30.117647z m0-180.705882h180.705882c18.070588 0 30.117647-12.047059 30.117647-30.117647s-12.047059-30.117647-30.117647-30.117647h-180.705882c-18.070588 0-30.117647 12.047059-30.117648 30.117647s12.047059 30.117647 30.117648 30.117647z m325.270588-295.152941l289.129412 289.129411-42.164706 42.164706-289.129412-289.129411-6.02353-48.188236 48.188236 6.02353z m289.129412 373.458823l42.164705-42.164706c24.094118-24.094118 24.094118-60.235294 0-84.329411l-289.129411-289.129412c-12.047059-12.047059-24.094118-18.070588-36.141177-18.070588l-84.329412-6.02353c-18.070588 0-30.117647 12.047059-30.117647 24.094118v6.023529l6.02353 84.329412c0 12.047059 6.023529 24.094118 18.070588 36.141176l289.129412 289.129412c24.094118 24.094118 60.235294 24.094118 84.329412 0z"  horiz-adv-x="1024" />

    
    <glyph glyph-name="jiangchengcuoshi" unicode="&#58897;" d="M383.5-64.22H192.39c-52.6 0-95.39 38.42-95.39 85.66V712.19c0 47.23 42.79 85.66 95.39 85.66h640.23c52.6 0 95.39-38.42 95.39-85.66V424.1c0-15.87-14.33-28.74-32-28.74s-32 12.87-32 28.74V712.19c0 15.54-14.08 28.18-31.39 28.18H192.39c-17.31 0-31.39-12.64-31.39-28.18v-690.76c0-15.54 14.08-28.18 31.39-28.18H383.5c17.67 0 32-12.87 32-28.74s-14.33-28.73-32-28.73zM734 576.23H288c-17.67 0-32 14.33-32 32s14.33 32 32 32h446c17.67 0 32-14.33 32-32s-14.33-32-32-32zM734 640.23H288c-17.67 0-32-14.33-32-32s14.33-32 32-32h446c17.67 0 32 14.33 32 32s-14.33 32-32 32zM734 446.09H288c-17.67 0-32 14.33-32 32s14.33 32 32 32h446c17.67 0 32-14.33 32-32s-14.33-32-32-32zM734 510.09H288c-17.67 0-32-14.33-32-32s14.33-32 32-32h446c17.67 0 32 14.33 32 32s-14.33 32-32 32zM606.51 316H288c-17.67 0-32 14.33-32 32s14.33 32 32 32h318.51c17.67 0 32-14.33 32-32s-14.32-32-32-32zM614.51 380H280c-13.26 0-24-14.33-24-32s10.75-32 24-32h334.51c13.26 0 24 14.33 24 32s-10.74 32-24 32zM479 192.12H288c-17.67 0-32 14.33-32 32s14.33 32 32 32h191c17.67 0 32-14.33 32-32 0-17.68-14.33-32-32-32zM479 256.12H288c-17.67 0-32-14.33-32-32s14.33-32 32-32h191c17.67 0 32 14.33 32 32s-14.33 32-32 32zM479 64.28H288c-17.67 0-32 14.33-32 32s14.33 32 32 32h191c17.67 0 32-14.33 32-32s-14.33-32-32-32zM479 128.28H288c-17.67 0-32-14.33-32-32s14.33-32 32-32h191c17.67 0 32 14.33 32 32s-14.33 32-32 32zM912.16 73.47c25.52 29.12 41 67.27 41 109.03 0 91.4-74.1 165.5-165.5 165.5s-165.5-74.1-165.5-165.5c0-45.95 18.73-87.52 48.96-117.5l-72.96-126.37 44.57 13.2 10.85-45.2 70.93 122.85c19.46-8.04 40.78-12.48 63.14-12.48 26.33 0 51.23 6.16 73.33 17.1l73.6-127.48 10.85 45.2 44.57-13.2-77.84 134.85z m-77.44 92.69l11.01-64.19-57.64 30.3-57.64-30.3 11.01 64.19-46.63 45.46 64.45 9.36 28.82 58.4 28.82-58.4 64.45-9.36-46.65-45.46z"  horiz-adv-x="1024" />

    
    <glyph glyph-name="respond" unicode="&#59106;" d="M342.96 299.968h-32.112l-110.96-62.928a16 16 0 0 0-23.888 13.92V640a16 16 0 0 0 16 16h505.744a16 16 0 0 0 16-16v-117.568h106.432a16 16 0 0 0 16-16v-389.552a16 16 0 0 0-24.32-13.664l-103.648 63.2H358.96a16 16 0 0 0-16 16v117.552z m0 48v158.464a16 16 0 0 0 16 16h306.784V608H224v-302.096l74.176 42.08h44.784z m48-133.568h330.72l66.496-40.528V474.432H390.96V214.4z"  horiz-adv-x="1024" />

    
    <glyph glyph-name="shouye" unicode="&#58889;" d="M714.56 678.4V805.22c0 26 5.48 32.28 29.06 32.28h109.1C871.36 837.5 878 830 878 808c0-87.62 0.54-175.82 0-263.44 0-13.84 3.28-22.48 12.6-31.12 40-35.74 78.94-72.64 118.42-108.96 19.18-17.86 19.74-26.52 3.28-47.84-9.86-12.68-19.18-26-29.6-39.2-12-16.14-22.48-16.72-36.72-3.46q-209.76 195.5-418.9 390.36c-4.94 4.62-9.86 8.64-15.34 13.84-31.26-29.42-62.5-58.18-93.74-87.06Q247.78 472.88 78.1 314.64c-15.34-14.42-24.66-13.26-37.82 3.46-10.42 13.84-21.38 28.24-31.8 42-12 16.72-11.52 27.1 3.28 40.94C74.82 460 138.4 519.28 201.44 578Q328 695.68 454.72 813.86c38.38 35.74 75.66 35.74 114 0 45.5-42.66 91-84.74 136.5-127.4 2.2-2.3 4.94-4 9.32-8m-121.12-746.6V201.64H432.24v-270.36c-4.94 0-9.32-0.58-13.16-0.58h-228c-26.32 0-43.86 17.88-43.86 46.7-0.54 110.68-0.54 222 0 332.62 0 5.76 4.38 13.26 8.22 17.3 69.08 64 138.14 127.4 207.22 191.38 46 42 92 84.74 138.14 126.82 3.84 3.46 7.12 6.34 11.52 10.38 27.42-25.36 54.82-50.16 82.24-75.52Q729.36 455.88 864.78 332c9.86-8.64 13.7-17.88 13.7-32.28-0.54-105.5-0.54-210.42 0-316 0-19.02-4.38-35.74-19.18-46.12a33.86 33.86 0 0 0-18.64-6.92c-80.58-0.58-161.72 0-242.3 0a19.52 19.52 0 0 0-4.94 1.18z"  horiz-adv-x="1024" />

    
    <glyph glyph-name="gongkai" unicode="&#58882;" d="M518.68-102.94c-1.43 0-2.86 0.13-4.28 0.39l-448.28 81.6c-11.02 2.01-19 11.37-19 22.28V780.99c0 6.98 3.3 13.57 8.95 17.87 5.65 4.3 13.02 5.82 19.97 4.12l74.29-18.09-11.29-43.98-45.36 11.04v-731.8l424.99-77.36 422.13 77.34V751.95l-62.53-15.22-11.29 43.98 91.45 22.27c6.95 1.7 14.32 0.17 19.97-4.12 5.65-4.3 8.95-10.89 8.95-17.87v-779.65c0-10.9-7.97-20.26-18.97-22.28l-445.4-81.6c-1.42-0.27-2.86-0.4-4.3-0.4zM514.01-102.13c-4.5 0-8.97 1.27-12.84 3.76L149.14 128.31c-6.52 4.2-10.44 11.3-10.44 18.91V854.33c0 7.95 4.28 15.33 11.28 19.42 7 4.1 15.69 4.33 22.91 0.6l340.08-175.7 340.08 175.7c7.22 3.73 15.91 3.5 22.91-0.6s11.28-11.47 11.28-19.42v-779.65c0-8.9-5.35-16.98-13.68-20.65L523.6-100.11a23.757 23.757 0 0 0-9.59-2.02zM185.26 159.4l330.87-213.05L840.67 89.3V816.64l-316.8-163.67c-6.82-3.52-15-3.52-21.82 0L185.26 816.64V159.4zM519.44 229.61h-4.41c-11.79 0-21.35 9.56-21.35 21.35V667.15c0 11.79 9.56 21.35 21.35 21.35h4.41c11.79 0 21.35-9.56 21.35-21.35v-416.19c0-11.8-9.56-21.35-21.35-21.35zM519.44 70.56h-4.41c-11.79 0-21.35 9.56-21.35 21.35v64.51c0 11.79 9.56 21.35 21.35 21.35h4.41c11.79 0 21.35-9.56 21.35-21.35v-64.51c0-11.79-9.56-21.35-21.35-21.35z"  horiz-adv-x="1024" />

    
    <glyph glyph-name="zhengcefagui2" unicode="&#58969;" d="M205.3601 151.9534c0 18.2856-14.8234 33.1049-33.1018 33.1049l-66.197504 0c-18.2825 0-33.1028-14.8183-33.1028-33.1049 0-18.2774 14.8204-33.0967 33.1028-33.0967l66.197504 0C190.5357 118.8577 205.3601 133.676 205.3601 151.9534zM74.3393 416.7506c0-18.2794 14.8204-33.0977 33.1018-33.0977l64.817152 0c18.2774 0 33.1018 14.8183 33.1018 33.0977 0 18.2845-14.8234 33.1028-33.1018 33.1028L107.441152 449.8534C89.1597 449.8534 74.3393 435.0351 74.3393 416.7506zM867.3526 811.8876l-66.1975 2.0593c0 18.2856-14.8183 33.1049-33.1018 33.1049L173.636608 847.0518c-18.2774 0-33.0977-14.8193-33.0977-33.1049l0-64.134144 33.097728 0c0 0 65.8872-6.2116 65.8872-66.2149 0 0 0.6984-66.3173-67.5697-66.3173l-31.4153-1.921 0.6871-130.3357 30.8849 0.0061c0 0 68.1329 0.0061 68.1329-70.3324 0 0-6.3437-64.1495-68.4052-64.1495l-31.1583-0.0133-0.5642-130.3153 32.982016 0c0 0 66.049-2.0654 66.049-68.267 0 0-0.1188-68.2598-68.3858-68.2598l-29.8076 2.0736-0.4137-66.2149c0 0 37.9269-99.2973 95.8484-99.2973l633.034752 0c0 0 31.0282 6.2044 31.0282 31.0313L900.451304 778.783744C900.4503 778.7837 894.2459 811.8876 867.3526 811.8876zM304.6554 615.3585l430.299136 0 0-264.809472L304.65536 350.549028 304.65536 615.358464zM801.154-13.5434 238.457856-13.5434c0 0-34.1361 11.3797-34.1361 34.133l563.7304 0.3441c18.2825 0 33.1018 14.8183 33.1018 33.1028L801.153956 783.950848l34.133-11.3797 0-755.083264C835.287 17.4879 836.3244-13.5434 801.154-13.5434zM106.0608 648.4552l66.197504 0c18.2774 0 33.1018 14.8183 33.1018 33.0967 0 18.2845-14.8234 33.1028-33.1018 33.1028l-66.197504 0c-18.2825 0-33.1028-14.8183-33.1028-33.1028C72.9569 663.2745 87.7783 648.4552 106.0608 648.4552zM652.2051 549.1507 387.406848 549.1507c-9.1423 0-16.5499-7.4127-16.5499-16.555 0-9.1372 7.4076-16.5417 16.5499-16.5417l264.798208 0c9.1392 0 16.5478 7.4045 16.5478 16.5417C668.7529 541.738 661.3443 549.1507 652.2051 549.1507zM652.2051 449.8534 387.406848 449.8534c-9.1423 0-16.5499-7.4056-16.5499-16.5478 0-9.1423 7.4076-16.555 16.5499-16.555l264.798208 0c9.1392 0 16.5478 7.4127 16.5478 16.555C668.7529 442.4468 661.3443 449.8534 652.2051 449.8534z"  horiz-adv-x="1024" />

    
    <glyph glyph-name="tongji" unicode="&#58929;" d="M331.840623 102.515245 331.840623 508.549022c0 16.191531-12.457456 28.645338-27.399836 28.645338L222.235197 537.19436c-14.94238 0-27.399836-13.698094-27.399836-28.645338L194.835361 102.515245 331.840623 102.515245 331.840623 102.515245zM506.210956 102.515245 506.210956 682.918139c0 16.192747-12.453808 29.89449-27.401052 29.89449l-82.20559 0c-14.94238 0-27.399836-13.701743-27.399836-29.89449L369.204478 102.515245 506.210956 102.515245 506.210956 102.515245zM680.580073 102.515245 680.580073 359.089952c0 16.191531-12.452591 29.889625-27.399836 29.889625L570.979512 388.979577c-14.947245 0-27.405918-13.698094-27.405918-29.889625L543.573595 102.515245 680.580073 102.515245 680.580073 102.515245zM854.94919 102.515245 854.94919 508.549022c0 16.191531-12.452591 28.645338-27.399836 28.645338l-82.200725 0c-14.947245 0-27.399836-13.698094-27.399836-28.645338L717.948794 102.515245 854.94919 102.515245 854.94919 102.515245zM879.860454 65.15139"  horiz-adv-x="1024" />

    
    <glyph glyph-name="zhengcejiedu-" unicode="&#58890;" d="M72.8 130.8L487-30V637.5L72.8 798.4v-667.6z m109.9 454.1c4.8 10.6 17.3 15.2 27.8 10.4L389 514.1c10.6-4.8 15.2-17.3 10.4-27.8-3.5-7.7-11.2-12.3-19.1-12.3-2.9 0-5.9 0.6-8.7 1.9l-178.5 81.2c-10.5 4.8-15.2 17.2-10.4 27.8z m0-178.7c4.8 10.6 17.3 15.2 27.8 10.4L389 335.4c10.6-4.8 15.2-17.3 10.4-27.8-3.5-7.7-11.2-12.3-19.1-12.3-2.9 0-5.9 0.6-8.7 1.9l-178.5 81.2c-10.5 4.8-15.2 17.2-10.4 27.8z m0-178.7c4.8 10.6 17.3 15.2 27.8 10.4L389 156.7c10.6-4.8 15.2-17.3 10.4-27.8-3.5-7.7-11.2-12.3-19.1-12.3-2.9 0-5.9 0.6-8.7 1.9l-178.5 81.2c-10.5 4.8-15.2 17.2-10.4 27.8z m354.7 410V-30l414.2 160.8V798.4L537.4 637.5z m293.8-437.8l-178.5-81.2c-2.8-1.3-5.8-1.9-8.7-1.9-8 0-15.6 4.6-19.1 12.3-4.8 10.6-0.1 23 10.4 27.8l178.5 81.2c10.6 4.8 23 0.1 27.8-10.4 4.9-10.6 0.2-23-10.4-27.8z m0 178.7l-178.5-81.2c-2.8-1.3-5.8-1.9-8.7-1.9-8 0-15.6 4.6-19.1 12.3-4.8 10.6-0.1 23 10.4 27.8l178.5 81.2c10.6 4.8 23 0.1 27.8-10.4 4.9-10.6 0.2-23-10.4-27.8z m0 178.7l-178.5-81.2c-2.8-1.3-5.8-1.9-8.7-1.9-8 0-15.6 4.6-19.1 12.3-4.8 10.6-0.1 23 10.4 27.8l178.5 81.2c10.6 4.8 23 0.1 27.8-10.4 4.9-10.6 0.2-23-10.4-27.8z"  horiz-adv-x="1024" />

    
    <glyph glyph-name="zhengcexuanchuan" unicode="&#58931;" d="M389.461333 349.866667a17.066667 17.066667 0 0 0-17.066666 19.114666l13.482666 107.52-74.069333 79.018667a17.066667 17.066667 0 0 0 9.216 28.501333l106.496 20.48 52.394667 94.890667A17.066667 17.066667 0 0 0 494.933333 708.266667a17.066667 17.066667 0 0 0 15.018667-8.874667l52.394667-94.890667 106.496-20.48a17.066667 17.066667 0 0 0 9.216-28.501333l-74.069334-79.018667 13.482667-107.52a17.066667 17.066667 0 0 0-24.234667-17.066666L494.933333 397.482667l-98.304-46.08a17.066667 17.066667 0 0 0-7.168-1.536zM358.4 556.373333l58.368-62.293333a17.066667 17.066667 0 0 0 4.437333-13.824l-10.581333-85.333333 77.482667 36.352a17.066667 17.066667 0 0 0 14.506666 0l77.653334-35.84-10.581334 85.333333a17.066667 17.066667 0 0 0 4.437334 13.824L631.466667 556.373333l-83.456 15.36a17.066667 17.066667 0 0 0-11.776 8.533334L494.933333 655.872l-41.301333-74.752a17.066667 17.066667 0 0 0-11.776-8.533333zM768 813.568L856.234667 725.333333H768V813.568M733.866667 896v-204.8h204.8L733.866667 896zM719.701333 861.866667L904.533333 677.034667V-59.733333a34.133333 34.133333 0 0 0-34.133333-34.133334H153.6a34.133333 34.133333 0 0 0-34.133333 34.133334V827.733333a34.133333 34.133333 0 0 0 34.133333 34.133334h566.101333M733.866667 896H153.6a68.266667 68.266667 0 0 1-68.266667-68.266667v-887.466666a68.266667 68.266667 0 0 1 68.266667-68.266667h716.8a68.266667 68.266667 0 0 1 68.266667 68.266667V691.2L733.866667 896zM716.8 213.333333H273.066667v-34.133333h443.733333v34.133333zM716.8 76.8H273.066667v-34.133333h443.733333v34.133333z"  horiz-adv-x="1024" />

    
    <glyph glyph-name="wj-fa" unicode="&#59176;" d="M751.5 735.5v-608c0-17.7-14.3-32-32-32h-511c-17.7 0-32 14.3-32 32v608c0 17.7 14.3 32 32 32h511c17.7 0 32-14.3 32-32z m0 96h-575c-35.3 0-64-28.7-64-64v-672c0-35.3 28.7-64 64-64h575c35.3 0 64 28.7 64 64v672c0 35.3-28.7 64-64 64zM639.5 607.5h-352c-17.7 0-32 14.3-32 32s14.3 32 32 32h352c17.7 0 32-14.3 32-32s-14.3-32-32-32zM639.5 415.5h-352c-17.7 0-32 14.3-32 32s14.3 32 32 32h352c17.7 0 32-14.3 32-32s-14.3-32-32-32zM447.5 223.5h-160c-17.7 0-32 14.3-32 32s14.3 32 32 32h160c17.7 0 32-14.3 32-32s-14.3-32-32-32zM847.5 736.5h-0.5v-90.4c0.3-1.8 0.5-3.7 0.5-5.6v-608c0-17.7-14.3-32-32-32h-639c0-35.3 28.7-64 64-64h607c35.3 0 64 28.7 64 64v672c0 35.3-28.7 64-64 64z"  horiz-adv-x="1024" />

    
    <glyph glyph-name="jiangchengcuoshi-copy" unicode="&#59947;" d="M321.70666667-83.30808889000002H104.26595557c-59.84711111 0-108.53262222 43.71342222-108.53262223 97.46204444V800.0739555499999c0 53.73724445 48.68551111 97.46204445 108.53262223 97.46204444h728.43946666c59.84711111 0 108.53262222-43.71342222 108.53262222-97.46204444V472.29155555c0-18.05653333-16.30435555-32.69973333-36.40888888-32.69973334s-36.40888889 14.6432-36.4088889 32.69973334V800.0739555499999c0 17.68106667-16.01991111 32.06257778-35.71484444 32.06257778H104.26595557c-19.69493333 0-35.71484445-14.38151111-35.71484445-32.06257778v-785.93137778c0-17.68106667 16.01991111-32.06257778 35.71484445-32.06257778H321.70666667c20.10453333 0 36.40888889-14.6432 36.4088889-32.69973333s-16.30435555-32.68835555-36.4088889-32.68835555zM720.49777778 645.38168888H213.0488889c-20.10453333 0-36.40888889 16.30435555-36.4088889 36.40888889s16.30435555 36.40888889 36.4088889 36.40888889h507.44888888c20.10453333 0 36.40888889-16.30435555 36.40888889-36.40888889s-16.30435555-36.40888889-36.40888889-36.40888889zM720.49777778 718.19946666H213.0488889c-20.10453333 0-36.40888889-16.30435555-36.4088889-36.40888889s16.30435555-36.40888889 36.4088889-36.40888889h507.44888888c20.10453333 0 36.40888889 16.30435555 36.40888889 36.40888889s-16.30435555 36.40888889-36.40888889 36.40888889zM720.49777778 497.31128888H213.0488889c-20.10453333 0-36.40888889 16.30435555-36.4088889 36.40888889s16.30435555 36.40888889 36.4088889 36.40888889h507.44888888c20.10453333 0 36.40888889-16.30435555 36.40888889-36.40888889s-16.30435555-36.40888889-36.40888889-36.40888889zM720.49777778 570.12906666H213.0488889c-20.10453333 0-36.40888889-16.30435555-36.4088889-36.40888889s16.30435555-36.40888889 36.4088889-36.40888889h507.44888888c20.10453333 0 36.40888889 16.30435555 36.40888889 36.40888889s-16.30435555 36.40888889-36.40888889 36.40888889zM575.4424889 349.29777777000004H213.0488889c-20.10453333 0-36.40888889 16.30435555-36.4088889 36.40888889s16.30435555 36.40888889 36.4088889 36.40888889h362.3936c20.10453333 0 36.40888889-16.30435555 36.40888888-36.40888889s-16.29297778-36.40888889-36.40888888-36.40888889zM584.54471112 422.11555555H203.94666667c-15.08693333 0-27.30666667-16.30435555-27.30666667-36.40888889s12.23111111-36.40888889 27.30666667-36.40888889h380.59804445c15.08693333 0 27.30666667 16.30435555 27.30666666 36.40888889s-12.21973333 36.40888889-27.30666666 36.40888889zM430.36444445 208.34986665999998H213.0488889c-20.10453333 0-36.40888889 16.30435555-36.4088889 36.40888889s16.30435555 36.40888889 36.4088889 36.40888889h217.31555555c20.10453333 0 36.40888889-16.30435555 36.40888889-36.40888889 0-20.11591111-16.30435555-36.40888889-36.40888889-36.40888889zM430.36444445 281.16764444H213.0488889c-20.10453333 0-36.40888889-16.30435555-36.4088889-36.40888889s16.30435555-36.40888889 36.4088889-36.40888889h217.31555555c20.10453333 0 36.40888889 16.30435555 36.40888889 36.40888889s-16.30435555 36.40888889-36.40888889 36.40888889zM430.36444445 62.89635554999995H213.0488889c-20.10453333 0-36.40888889 16.30435555-36.4088889 36.40888889s16.30435555 36.40888889 36.4088889 36.40888889h217.31555555c20.10453333 0 36.40888889-16.30435555 36.40888889-36.40888889s-16.30435555-36.40888889-36.40888889-36.40888889zM430.36444445 135.71413332999998H213.0488889c-20.10453333 0-36.40888889-16.30435555-36.4088889-36.40888889s16.30435555-36.40888889 36.4088889-36.40888889h217.31555555c20.10453333 0 36.40888889 16.30435555 36.40888889 36.40888889s-16.30435555 36.40888889-36.40888889 36.40888889zM923.20426667 73.35253333000003c29.03608889 33.13208889 46.64888889 76.53831111 46.6488889 124.05191111 0 103.99288889-84.30933333 188.30222222-188.30222223 188.30222222s-188.30222222-84.30933333-188.30222222-188.30222222c0-52.28088889 21.31057778-99.57831111 55.7056-133.68888889l-83.01226667-143.78097778 50.71075555 15.01866667 12.3448889-51.42755556 80.70257777 139.776c22.14115555-9.14773333 46.39857778-14.19946667 71.8392889-14.19946667 29.95768889 0 58.28835555 7.00871111 83.43324443 19.456l83.74044445-145.0439111 12.34488889 51.42755555 50.71075556-15.01866667-88.56462223 153.42933334z m-88.1095111 105.46062222l12.52693333-73.03395556-65.58151112 34.47466667-65.58151111-34.47466667 12.52693333 73.03395556-53.05457777 51.72337778 73.32977777 10.6496 32.79075557 66.44622222 32.79075555-66.44622222 73.32977778-10.6496-53.07733333-51.72337778z"  horiz-adv-x="1024" />

    
    <glyph glyph-name="jiantou" unicode="&#58914;" d="M778.965749 767.240451l-383.064442-383.063419 388.097062-388.096039-0.070608-0.033769c12.709463-13.137205 20.529569-31.024597 20.529569-50.731428 0-40.376593-32.736589-73.112158-73.115228-73.112158-19.705807 0-37.591153 7.819083-50.730405 20.528546l-0.034792-0.035816L241.890654 331.377502l0.035816 0.035816c-13.779841 13.281491-22.3838 31.915897-22.3838 52.585659 0 0.071631 0 0.106424 0 0.178055 0 0.072655 0 0.10847 0 0.144286 0 20.669762 8.603959 39.341007 22.3838 52.622498l-0.035816 0.034792L680.573835 875.662813l0.180102-0.179079c13.139252 12.5662 30.950919 20.313651 50.587142 20.313651 40.378639 0 73.115228-32.736589 73.115228-73.114205C804.455283 800.514275 794.567076 780.665205 778.965749 767.240451z"  horiz-adv-x="1024" />

    
    <glyph glyph-name="zhcc_xiangshangjiantou" unicode="&#59016;" d="M935.936 146.6368H86.4256l424.7552 471.2448L935.936 146.6368z m0 0"  horiz-adv-x="1024" />

    
    <glyph glyph-name="zhcc_xiangxiajiantou" unicode="&#59017;" d="M86.4256 618.0864H935.936L511.1808 146.6368 86.4256 618.0864z m0 0"  horiz-adv-x="1024" />

    
    <glyph glyph-name="jiantou1" unicode="&#58935;" d="M595.7 384.9L240.8 30l93.2-93.1 447.4 447.4-0.6 0.6 0.6 0.5L334 832.9l-93.2-93.2z"  horiz-adv-x="1024" />

    


  </font>
</defs>
</svg>
